HIERARCHY
ROOT SpineBase
{
  OFFSET 0.000000 0.000000 0.000000
  CHANNELS 6 Xposition Yposition Zposition Zrotation Xrotation Yrotation
  JOINT SpineMid
  {
    OFFSET -0.000000 22.345363 0.000000
    CHANNELS 3 Zrotation Xrotation Yrotation
    JOINT SpineShoulder
    {
      OFFSET -0.044742 16.867983 -0.628297
      CHANNELS 3 Zrotation Xrotation Yrotation
      JOINT Neck
      {
        OFFSET -0.047312 5.669999 -0.476285
        CHANNELS 3 Zrotation Xrotation Yrotation
        JOINT Head
        {
          OFFSET -1.813655 13.398305 3.818701
          CHANNELS 3 Zrotation Xrotation Yrotation
          End Site
          {
            OFFSET 0 0 0
          }
        }
      }
      JOINT ShoulderLeft
      {
        OFFSET -12.047727 -5.290226 4.426503
        CHANNELS 3 Zrotation Xrotation Yrotation
        JOINT ElbowLeft
        {
          OFFSET -4.601643 -21.900790 -1.337859
          CHANNELS 3 Zrotation Xrotation Yrotation
          JOINT WristLeft
          {
            OFFSET -1.155455 -7.753987 -17.973108
            CHANNELS 3 Zrotation Xrotation Yrotation
            JOINT HandLeft
            {
              OFFSET 0.101787 -0.529794 -1.239086
              CHANNELS 3 Zrotation Xrotation Yrotation
              JOINT HandTipLeft
              {
                OFFSET 0.992192 -0.385407 -7.964566
                CHANNELS 3 Zrotation Xrotation Yrotation
                End Site
                {
                  OFFSET 0 0 0
                }
              }
              JOINT ThumbLeft
              {
                OFFSET 1.830916 -0.788703 -4.347776
                CHANNELS 3 Zrotation Xrotation Yrotation
                End Site
                {
                  OFFSET 0 0 0
                }
              }
            }
          }
        }
      }
      JOINT ShoulderRight
      {
        OFFSET 9.983345 -2.048123 -6.834282
        CHANNELS 3 Zrotation Xrotation Yrotation
        JOINT ElbowRight
        {
          OFFSET 3.935739 -22.039795 -5.846217
          CHANNELS 3 Zrotation Xrotation Yrotation
          JOINT WristRight
          {
            OFFSET -12.210961 -9.690228 -9.949412
            CHANNELS 3 Zrotation Xrotation Yrotation
            JOINT HandRight
            {
              OFFSET -2.571081 -2.751935 -5.123071
              CHANNELS 3 Zrotation Xrotation Yrotation
              JOINT HandTipRight
              {
                OFFSET -2.486235 -2.060674 -6.208157
                CHANNELS 3 Zrotation Xrotation Yrotation
                End Site
                {
                  OFFSET 0 0 0
                }
              }
              JOINT ThumbRight
              {
                OFFSET -3.160794 2.175049 -0.422523
                CHANNELS 3 Zrotation Xrotation Yrotation
                End Site
                {
                  OFFSET 0 0 0
                }
              }
            }
          }
        }
      }
    }
  }
  JOINT HipLeft
  {
    OFFSET -5.431339 1.034628 -1.106697
    CHANNELS 3 Zrotation Xrotation Yrotation
    JOINT KneeLeft
    {
      OFFSET -19.256208 -5.910578 -26.665667
      CHANNELS 3 Zrotation Xrotation Yrotation
      JOINT AnkleLeft
      {
        OFFSET 0.586771 -33.349342 3.656914
        CHANNELS 3 Zrotation Xrotation Yrotation
        JOINT FootLeft
        {
          OFFSET -4.468706 -3.633175 -6.026462
          CHANNELS 3 Zrotation Xrotation Yrotation
          End Site
          {
            OFFSET 0 0 0
          }
        }
      }
    }
  }
  JOINT HipRight
  {
    OFFSET 4.824207 1.526864 -4.511936
    CHANNELS 3 Zrotation Xrotation Yrotation
    JOINT KneeRight
    {
      OFFSET -13.364172 -4.440713 -30.697992
      CHANNELS 3 Zrotation Xrotation Yrotation
      JOINT AnkleRight
      {
        OFFSET 9.831846 -36.181593 2.560216
        CHANNELS 3 Zrotation Xrotation Yrotation
        JOINT FootRight
        {
          OFFSET -3.781905 -3.567980 -6.559192
          CHANNELS 3 Zrotation Xrotation Yrotation
          End Site
          {
            OFFSET 0 0 0
          }
        }
      }
    }
  }
}
MOTION
Frames: 10
Frame Time: 0.033333
41.164270 48.078337 373.665165 3.393326 -4.708564 15.344447 0.373584 -2.073604 -15.036934 0.519738 -0.472111 0.191245 -4.496475 2.921061 -0.730443 0.000000 0.000000 0.000000 -85.777644 -5.028710 8.769599 -165.346115 68.956021 -122.790163 35.061174 -1.992495 1.846066 -11.741699 -34.398753 5.113655 0.000000 0.000000 0.000000 0.000000 0.000000 0.000000 139.065804 66.180727 -117.956123 -108.804142 40.120811 -39.463952 -17.922140 -73.563734 7.216069 50.740273 30.255898 -6.758163 0.000000 0.000000 0.000000 0.000000 0.000000 0.000000 -0.572995 0.829749 -13.315407 -3.313112 6.194068 -1.770113 4.082389 7.882028 -15.783648 0.000000 0.000000 0.000000 -1.248782 0.605318 -15.979415 -2.089147 4.424128 0.910332 2.895650 -7.678029 3.553117 0.000000 0.000000 0.000000
41.237708 48.936473 373.303553 4.583694 -5.814998 19.108854 -0.084661 -1.823214 -18.664331 0.120401 -0.381853 0.209076 -2.927115 2.984447 -1.553766 0.000000 0.000000 0.000000 -85.053469 -3.767842 10.142728 -167.610842 76.080741 -119.653159 49.345427 -5.424265 -3.114173 -23.695376 -28.451544 10.830615 0.000000 0.000000 0.000000 0.000000 0.000000 0.000000 138.214516 68.733318 -119.076475 -108.436884 34.988866 -37.909547 -0.805152 -62.075405 22.303132 42.641125 26.683332 -3.165710 0.000000 0.000000 0.000000 0.000000 0.000000 0.000000 -0.793502 0.795702 -16.958520 -4.475408 7.634614 -1.683055 5.373069 6.471957 -16.318180 0.000000 0.000000 0.000000 -1.708825 -1.271296 -19.620315 -4.290483 7.349941 1.090700 5.184196 -7.157248 0.093870 0.000000 0.000000 0.000000
41.552680 49.593656 372.776458 4.908672 -4.790054 20.703133 -0.115801 -1.189980 -20.284406 -0.141293 -0.143319 0.208907 1.398062 -6.090195 -3.697825 0.000000 0.000000 0.000000 -85.568125 6.255735 13.734173 57.638274 84.094250 16.155538 57.030916 -6.957808 -7.848277 -31.385500 -24.221006 15.041917 0.000000 0.000000 0.000000 0.000000 0.000000 0.000000 156.461750 75.567560 -141.448330 -102.265057 18.129894 -43.697550 5.025913 -40.537811 29.985295 28.846532 17.137819 3.822324 0.000000 0.000000 0.000000 0.000000 0.000000 0.000000 -1.001924 -1.673174 -18.103076 -5.608210 8.891930 -1.989655 5.076104 7.776863 -16.417501 0.000000 0.000000 0.000000 -2.258257 -5.563884 -20.594929 -5.069710 9.485763 0.383575 0.632883 6.377357 -5.357766 0.000000 0.000000 0.000000
41.366667 49.561590 372.364241 7.123120 -7.549369 28.357913 -0.192421 -0.310810 -27.621833 -0.392491 0.244008 0.265076 -1.126684 -3.055343 -3.381163 0.000000 0.000000 0.000000 -84.114032 8.872745 15.794235 24.588230 77.428756 47.581279 57.550408 -3.476713 -10.362493 -27.097032 -23.131937 11.291932 0.000000 0.000000 0.000000 0.000000 0.000000 0.000000 138.990424 74.901199 -124.406363 -104.240176 10.836927 -43.609550 3.448013 -40.337728 32.480075 26.778911 17.777302 4.881330 0.000000 0.000000 0.000000 0.000000 0.000000 0.000000 -1.599982 1.293367 -26.787465 -6.625780 8.682833 -0.584980 6.291893 7.619092 -17.358974 0.000000 0.000000 0.000000 -3.792577 -4.615447 -27.479447 -5.691692 11.242746 -0.047276 1.983877 5.327706 -6.778304 0.000000 0.000000 0.000000
40.744330 50.803582 372.484990 7.212527 -9.775137 25.969076 -0.027921 0.782934 -25.135367 -1.058511 0.439414 0.240606 1.560842 -0.486032 -3.868080 0.000000 0.000000 0.000000 -75.633865 6.142006 13.712135 12.410673 70.836539 56.969069 48.171862 4.290174 -10.784083 -16.738059 -23.922972 8.313468 0.000000 0.000000 0.000000 0.000000 0.000000 0.000000 107.403536 78.717693 -93.192184 -95.584475 -1.364012 -42.418240 2.277990 -34.818687 36.371825 14.378653 11.821761 14.077126 0.000000 0.000000 0.000000 0.000000 0.000000 0.000000 0.024823 -0.103924 -26.155334 -10.295132 10.616542 1.654694 7.019641 9.487637 -17.838049 0.000000 0.000000 0.000000 -2.845559 -6.905722 -26.278078 -7.218867 14.433362 1.501168 1.361630 8.181797 -8.684393 0.000000 0.000000 0.000000
40.027234 51.992072 371.659692 6.563263 -10.030634 10.319904 -0.319386 0.713405 -9.539106 -0.529948 0.710764 0.198897 0.497019 5.289439 -2.873235 0.000000 0.000000 0.000000 -62.791453 -1.927378 8.839710 8.047056 62.068893 56.824074 63.364461 49.592005 -27.901647 -21.403747 -71.084765 -4.187155 0.000000 0.000000 0.000000 0.000000 0.000000 0.000000 56.949943 79.979771 -45.177203 -87.065153 -24.357896 -40.831727 4.379042 -42.569847 43.084280 17.637450 23.395700 13.713697 0.000000 0.000000 0.000000 0.000000 0.000000 0.000000 2.900425 -4.565867 -9.119331 -12.582837 13.845976 0.981661 5.361675 13.215208 -18.217854 0.000000 0.000000 0.000000 -0.105557 -7.925932 -12.004662 -7.915696 15.462748 3.193359 1.227743 8.109829 -8.916458 0.000000 0.000000 0.000000
39.075038 52.550203 371.572843 4.821510 -10.009492 -7.528365 -0.380993 0.538451 8.096109 0.011086 0.724356 0.131808 -1.327763 9.780176 -1.200037 0.000000 0.000000 0.000000 -39.674840 -25.243594 4.023357 -9.080493 76.187041 57.155936 27.021538 13.644110 -7.714926 4.564755 -17.995313 0.468419 0.000000 0.000000 0.000000 0.000000 0.000000 0.000000 27.442243 72.510419 -16.507064 -56.028808 -51.756660 -33.896778 21.362743 -46.900126 57.900487 3.720768 46.051859 35.888268 0.000000 0.000000 0.000000 0.000000 0.000000 0.000000 9.179902 -6.710895 8.760190 -15.317538 16.340340 1.804352 2.860303 17.541305 -17.080309 0.000000 0.000000 0.000000 4.316570 -8.131998 3.246567 -8.480087 15.414521 5.643600 1.096985 8.395877 -9.067217 0.000000 0.000000 0.000000
38.195738 52.195127 372.068325 2.242460 -9.291249 -22.272890 -0.248305 0.086005 22.519129 0.728858 0.720663 0.034179 -3.002780 12.462833 0.699492 0.000000 0.000000 0.000000 -20.560674 -33.703843 6.168544 -15.950997 75.689066 48.466553 20.582145 11.851932 -7.632285 4.202704 -5.129797 5.664041 0.000000 0.000000 0.000000 0.000000 0.000000 0.000000 18.323197 62.301271 -7.345528 -5.964774 -57.697103 -12.257731 39.700637 -45.658082 40.963508 -43.780108 35.085745 110.312084 0.000000 0.000000 0.000000 0.000000 0.000000 0.000000 14.863390 -5.019877 22.654741 -16.015078 16.774474 2.434154 2.405856 17.253207 -16.279765 0.000000 0.000000 0.000000 7.446177 -5.179323 15.349547 -8.132072 13.715837 7.627823 0.114346 7.681526 -6.789703 0.000000 0.000000 0.000000
37.566724 51.238087 372.840779 -0.019077 -7.951601 -29.694657 -0.218114 -0.294258 29.681364 1.222214 0.880695 -0.045655 -3.876615 13.171340 2.199335 0.000000 0.000000 0.000000 -2.806740 -34.137584 8.927047 -24.755207 68.134106 42.758614 14.849234 17.428825 -3.480070 1.833889 -9.275870 11.916657 0.000000 0.000000 0.000000 0.000000 0.000000 0.000000 19.640936 48.813693 -6.890308 2.228501 -45.040278 -12.904380 7.084649 -23.354627 16.095925 -19.848229 0.055242 102.247066 0.000000 0.000000 0.000000 0.000000 0.000000 0.000000 17.446103 -3.012079 28.943965 -14.936398 15.700513 2.682233 0.388572 18.572570 -15.009704 0.000000 0.000000 0.000000 8.074791 -2.101078 20.871255 -7.148452 11.223865 8.877183 2.585638 1.215608 -5.542109 0.000000 0.000000 0.000000
37.302991 49.729391 373.366227 -1.797123 -5.438257 -32.134432 -0.104079 -1.022726 31.958668 1.574807 0.834053 -0.089000 -3.187837 11.187833 2.551023 0.000000 0.000000 0.000000 12.809519 -32.965931 11.192345 -32.800861 63.238728 35.465786 9.904859 16.214362 -0.914339 -1.200659 -4.726049 20.124814 0.000000 0.000000 0.000000 0.000000 0.000000 0.000000 14.787259 41.026545 -2.491114 5.046120 -35.599671 -16.938097 -9.129956 -9.043306 16.120721 -1.229177 -22.324803 96.677554 0.000000 0.000000 0.000000 0.000000 0.000000 0.000000 17.507419 -2.265822 31.303464 -11.825050 13.115381 1.898641 -2.060161 19.692284 -13.686672 0.000000 0.000000 0.000000 7.311427 0.036792 22.709600 -5.397190 7.632542 9.133486 7.682417 -12.485171 0.719830 0.000000 0.000000 0.000000
